<svg xmlns="http://www.w3.org/2000/svg" width="18" height="18" viewBox="0 0 24 24" fill="currentColor">
  <path d="M11.996 0C5.373 0 0 5.372 0 11.996 0 18.62 5.373 24 11.996 24 18.62 24 24 18.62 24 11.996 24 5.372 18.62 0 11.996 0zM9.01 17.51l-2.944-2.944a.5.5 0 0 1 0-.707l2.944-2.944a.5.5 0 0 1 .707.707L8.066 13.27h7.428a.5.5 0 0 1 0 1H8.066l1.65 1.649a.5.5 0 1 1-.706.707zm5.98-5.374l-1.649-1.649H5.914a.5.5 0 0 1 0-1h7.428L11.69 7.84a.5.5 0 0 1 .706-.707l2.944 2.944a.5.5 0 0 1 0 .707l-2.944 2.944a.5.5 0 0 1-.706-.707l1.649-1.649h.651z"/>
</svg>
